<?xml version="1.0" encoding="utf-8"?>
<!-- Generator: Adobe Illustrator 18.1.1, SVG Export Plug-In . SVG Version: 6.00 Build 0)  -->
<svg version="1.1" id="Layer_1" xmlns="http://www.w3.org/2000/svg" xmlns:xlink="http://www.w3.org/1999/xlink" x="0px" y="0px"
	 viewBox="0 0 40 41" enable-background="new 0 0 40 41" xml:space="preserve">
<g>
	<g>
		<path fill="none" stroke="#F58220" stroke-linecap="round" stroke-linejoin="round" stroke-miterlimit="10" d="M35.9,17.8v14.1
			c-3.5-0.8-13.6-1.4-15.8,2c0,0,0-20.7,0-21.9c0-5.9,9.3-5.9,15.8-3.2v9.6"/>
		<path fill="none" stroke="#F58220" stroke-linecap="round" stroke-linejoin="round" stroke-miterlimit="10" d="M4.1,18v14
			c3.5-0.8,13.6-1.4,15.8,2c0,0,0-20.7,0-21.9c0-5.9-9.3-5.9-15.8-3.2V19"/>
	</g>
	<path fill="none" stroke="#F58220" stroke-linecap="round" stroke-linejoin="round" stroke-miterlimit="10" d="M6.5,11.7
		c1.9-0.5,8-2.4,11,1.3"/>
	<path fill="none" stroke="#F58220" stroke-linecap="round" stroke-linejoin="round" stroke-miterlimit="10" d="M6.5,15.5
		c1.9-0.5,8-2.4,11,1.3"/>
	<path fill="none" stroke="#F58220" stroke-linecap="round" stroke-linejoin="round" stroke-miterlimit="10" d="M33.6,22.9
		c-1.9-0.5-8-2.4-11,1.3"/>
	<path fill="none" stroke="#F58220" stroke-linecap="round" stroke-linejoin="round" stroke-miterlimit="10" d="M33.6,14.1
		c0-1.3,0-2.4,0-2.4c-1.9-0.5-8-2.4-11,1.3c0,0-0.2,7.1,0,7.2c3-3.6,9.1-1.7,11-1.3c0-0.1,0-4.2,0-5.4"/>
	<path fill="none" stroke="#F58220" stroke-linecap="round" stroke-linejoin="round" stroke-miterlimit="10" d="M33.6,26.6
		c-1.9-0.5-8-2.4-11,1.3"/>
	<path fill="none" stroke="#F58220" stroke-linecap="round" stroke-linejoin="round" stroke-miterlimit="10" d="M6.5,19.3
		c1.9-0.5,8-2.4,11,1.3"/>
	<path fill="none" stroke="#F58220" stroke-linecap="round" stroke-linejoin="round" stroke-miterlimit="10" d="M6.5,22.9
		c1.9-0.5,8-2.4,11,1.3"/>
	<path fill="none" stroke="#F58220" stroke-linecap="round" stroke-linejoin="round" stroke-miterlimit="10" d="M6.5,26.6
		c1.9-0.5,8-2.4,11,1.3"/>
</g>
</svg>
