<?xml version="1.0" encoding="utf-8"?>
<!-- Generator: Adobe Illustrator 18.1.1, SVG Export Plug-In . SVG Version: 6.00 Build 0)  -->
<svg version="1.1" id="Layer_1" xmlns="http://www.w3.org/2000/svg" xmlns:xlink="http://www.w3.org/1999/xlink" x="0px" y="0px"
	 viewBox="0 0 40 41" enable-background="new 0 0 40 41" xml:space="preserve">
<g>
	<path fill="none" stroke="#F58220" stroke-width="1.5" stroke-linecap="round" stroke-linejoin="round" stroke-miterlimit="10" d="M20.1,11.5
		c-2.9,0-8.5,1.2-12.7,9c-0.1,0.2-0.1,0.4,0,0.6c3.1,5.4,7.7,8.5,12.5,8.5c4.9,0,9.4-3.2,12.6-8.7c0.1-0.2,0.1-0.4,0-0.6
		C30,14.9,25.3,11.5,20.1,11.5"/>
</g>
<circle fill="none" stroke="#F58220" stroke-width="1.5" stroke-miterlimit="10" cx="20" cy="20.5" r="15.9"/>
<path fill="none" stroke="#F58220" stroke-width="1.5" stroke-linecap="round" stroke-linejoin="round" stroke-miterlimit="10" d="M22.2,11.7
	c1.9,0.6,3.9,1.8,5.1,3.6c2.8,4.1,1.7,9.6-2.3,12.4s-9.6,1.7-12.4-2.3S10.9,15.8,15,13c0.8-0.6,1.7-1,2.6-1.2"/>
<path fill="none" stroke="#F58220" stroke-width="1.5" stroke-linecap="round" stroke-linejoin="round" stroke-miterlimit="10" d="M20,20.5"/>
<path fill="none" stroke="#F58220" stroke-width="1.5" stroke-linecap="round" stroke-linejoin="round" stroke-miterlimit="10" d="M24.3,20.4
	c0,3-2,4.5-4.3,4.5c-2.4,0-4.3-1.9-4.3-4.3s1.9-4.3,4.3-4.3"/>
<path fill="none" stroke="#F58220" stroke-width="1.5" stroke-linecap="round" stroke-linejoin="round" stroke-miterlimit="10" d="M22.7,21.9
	c0,1.5-3,1.8-4.6,0.2c-1.3-1.3-0.8-4.3,0.4-4.3"/>
</svg>
