<?xml version="1.0" encoding="utf-8"?>
<!-- Generator: Adobe Illustrator 18.1.1, SVG Export Plug-In . SVG Version: 6.00 Build 0)  -->
<svg version="1.1" id="Layer_1" xmlns="http://www.w3.org/2000/svg" xmlns:xlink="http://www.w3.org/1999/xlink" x="0px" y="0px"
	 viewBox="0 0 40 41" enable-background="new 0 0 40 41" xml:space="preserve">
<circle fill="none" stroke="#F58220" stroke-width="1.5" stroke-miterlimit="10" cx="20" cy="20.5" r="15.9"/>
<g>
	<line fill="none" stroke="#F58220" stroke-width="1.5" stroke-miterlimit="10" x1="10.8" y1="11.3" x2="15.4" y2="30.5"/>
	<path fill="none" stroke="#F58220" stroke-width="1.5" stroke-miterlimit="10" d="M11.7,14.5c0.4-1.7,7.4-6.4,8.5-2.3c1.2,4.7,1.7,7.1,2,8.1
		c0.2,1-0.4,2.1-1.5,2.7"/>
	<path fill="none" stroke="#F58220" stroke-width="1.5" stroke-miterlimit="10" d="M13.8,23.8c0.9-0.8,4.2-5.3,8.3-3.5"/>
	<path fill="none" stroke="#F58220" stroke-width="1.5" stroke-miterlimit="10" d="M19.9,20c0.2,0.8,0.6,3.3,0.8,4.1c0.2,0.7,2.9,1.2,5.2,0.3
		c2.3-0.9,3.4-2.2,3.3-2.5s-1.8-9.5-2.2-9c-0.7,0.8-3.2,2.3-6,2.4"/>
</g>
</svg>
