<?xml version="1.0" encoding="utf-8"?>
<!-- Generator: Adobe Illustrator 18.1.1, SVG Export Plug-In . SVG Version: 6.00 Build 0)  -->
<svg version="1.1" id="Layer_1" xmlns="http://www.w3.org/2000/svg" xmlns:xlink="http://www.w3.org/1999/xlink" x="0px" y="0px"
	 viewBox="16.7 204 366.7 187.3" enable-background="new 16.7 204 366.7 187.3" xml:space="preserve">
<rect x="25.6" y="210.5" fill="#FFFFFF" width="348.7" height="171.8"/>
<g>
	<path fill="none" stroke="#F58220" stroke-width="10" stroke-linecap="round" stroke-linejoin="round" stroke-miterlimit="10" d="
		M327,252.5c0,0-11-10.5-38.5-31c-22-16.5-39.5,0-48.5,26.5c0-20.5-17-37.5-37.5-37.5S165,227,165,247.5
		C152,224,139.5,212,116.5,224S75,251.5,75,251.5"/>
	<path fill="none" stroke="#F58220" stroke-width="10" stroke-miterlimit="10" d="M155.5,333c12-7,27.5-25.5,24.5-42
		c-3-16,17.5-14.5,22-14.5c4.5,0,22-1.5,19,17c-3.5,24.5,24.5,40,24.5,40"/>
	<path fill="none" stroke="#F58220" stroke-width="10" stroke-linecap="round" stroke-linejoin="round" stroke-miterlimit="10" d="
		M49.5,317.5c0-26,23-41,47.5-38"/>
	<path fill="none" stroke="#F58220" stroke-width="10" stroke-linecap="round" stroke-linejoin="round" stroke-miterlimit="10" d="
		M265,317.5c0-26,23-41,47.5-38"/>
	
		<line fill="none" stroke="#F58220" stroke-width="10" stroke-linecap="round" stroke-linejoin="round" stroke-miterlimit="10" x1="163.5" y1="243" x2="180" y2="286"/>
	
		<line fill="none" stroke="#F58220" stroke-width="10" stroke-linecap="round" stroke-linejoin="round" stroke-miterlimit="10" x1="239" y1="249.5" x2="222" y2="283"/>
	<path fill="none" stroke="#F58220" stroke-width="10" stroke-linecap="round" stroke-linejoin="round" stroke-miterlimit="10" d="
		M210.5,243c0,6-4,8.5-8.5,8.5c-4.5,0-8.5-3.5-8.5-8.5c0-4.5,3.5-8.5,8.5-8.5C207,235,210.5,239,210.5,243"/>
	<path fill="none" stroke="#F58220" stroke-width="10" stroke-linecap="round" stroke-linejoin="round" stroke-miterlimit="10" d="
		M157,315.5c0,47-32,69.5-67,69.5c-37,0-67-30-67-67s30-67,67-67s67,30,67,67"/>
	<path fill="none" stroke="#F58220" stroke-width="10" stroke-linecap="round" stroke-linejoin="round" stroke-miterlimit="10" d="
		M377,315.5c0,47-32,69.5-67,69.5c-37,0-67-30-67-67s30-67,67-67s67,30,67,67"/>
</g>
</svg>
