<?xml version="1.0" encoding="utf-8"?>
<!-- Generator: Adobe Illustrator 18.1.1, SVG Export Plug-In . SVG Version: 6.00 Build 0)  -->
<svg version="1.1" id="Layer_1" xmlns="http://www.w3.org/2000/svg" xmlns:xlink="http://www.w3.org/1999/xlink" x="0px" y="0px"
	 viewBox="0 0 40 41" enable-background="new 0 0 40 41" xml:space="preserve">
<g>
	<path fill="none" stroke="#F58220" stroke-width="1" stroke-linecap="round" stroke-linejoin="round" stroke-miterlimit="10" d="
		M16.3,30.6l7.6-2.1c0-1.2,0.7-3,1.4-3.6c2-1.7,3.4-4.1,3.4-6.9c0-4.8-3.9-8.7-8.7-8.7s-8.7,3.9-8.7,8.7c0,2.9,0.6,3.6,3.8,7.3
		c0.8,0.9,1.3,3.1,1.3,4"/>
	
		<line fill="none" stroke="#F58220" stroke-width="1" stroke-linecap="round" stroke-linejoin="round" stroke-miterlimit="10" x1="16.3" y1="33.1" x2="23.8" y2="31.3"/>
	
		<line fill="none" stroke="#F58220" stroke-width="1" stroke-linecap="round" stroke-linejoin="round" stroke-miterlimit="10" x1="16.3" y1="35.7" x2="23.8" y2="33.8"/>
	<path fill="none" stroke="#F58220" stroke-width="1" stroke-linecap="round" stroke-linejoin="round" stroke-miterlimit="10" d="
		M17.8,36.8c1.1,0.6,3,0.9,4.5-0.1"/>
	<path fill="none" stroke="#F58220" stroke-width="1" stroke-linecap="round" stroke-linejoin="round" stroke-miterlimit="10" d="
		M18.9,27.7c0-0.8-1.2-5.8-1.5-6.8c-0.3-0.8,2,1.1,2.6,1.3c0.4,0.1,2.9-2.3,2.6-1.3c-0.3,0.9-1.5,6.6-1.5,6.6"/>
	
		<line fill="none" stroke="#F58220" stroke-width="1" stroke-linecap="round" stroke-linejoin="round" stroke-miterlimit="10" x1="8.6" y1="16.7" x2="4.9" y2="16.7"/>
	
		<line fill="none" stroke="#F58220" stroke-width="1" stroke-linecap="round" stroke-linejoin="round" stroke-miterlimit="10" x1="9.9" y1="24.3" x2="7.2" y2="27"/>
	
		<line fill="none" stroke="#F58220" stroke-width="1" stroke-linecap="round" stroke-linejoin="round" stroke-miterlimit="10" x1="35.3" y1="16.7" x2="31.5" y2="16.7"/>
	
		<line fill="none" stroke="#F58220" stroke-width="1" stroke-linecap="round" stroke-linejoin="round" stroke-miterlimit="10" x1="32.7" y1="27" x2="30" y2="24.3"/>
	
		<line fill="none" stroke="#F58220" stroke-width="1" stroke-linecap="round" stroke-linejoin="round" stroke-miterlimit="10" x1="20" y1="7" x2="20" y2="3.2"/>
	
		<line fill="none" stroke="#F58220" stroke-width="1" stroke-linecap="round" stroke-linejoin="round" stroke-miterlimit="10" x1="29.1" y1="9.6" x2="31.8" y2="7"/>
	
		<line fill="none" stroke="#F58220" stroke-width="1" stroke-linecap="round" stroke-linejoin="round" stroke-miterlimit="10" x1="8.4" y1="7" x2="11.1" y2="9.6"/>
</g>
</svg>
