<?xml version="1.0" encoding="utf-8"?>
<!-- Generator: Adobe Illustrator 18.1.1, SVG Export Plug-In . SVG Version: 6.00 Build 0)  -->
<svg version="1.1" id="Layer_1" xmlns="http://www.w3.org/2000/svg" xmlns:xlink="http://www.w3.org/1999/xlink" x="0px" y="0px"
	 viewBox="0 107 400 380" enable-background="new 0 107 400 380" xml:space="preserve">
<path fill="#FFFFFF" d="M188,469.3L188,469.3c-41.4,0-25.1-80.9-25-97.3l-52-86.3c2-60.2,35.6-93.7,77-93.7h24
	c41.4,0,75,33.6,75,112l-42.4,52.7C244.6,374.4,242.7,469.3,188,469.3z"/>
<g>
	<path fill="none" stroke="#F58220" stroke-width="11" stroke-linecap="round" stroke-linejoin="round" stroke-miterlimit="10" d="
		M163,401l76-21c0-12,7-30,14-36c20-17,34-41,34-69c0-48-39-87-87-87s-87,39-87,87c0,29,6,36,38,73c8,9,13,31,13,40"/>
	
		<line fill="none" stroke="#F58220" stroke-width="11" stroke-linecap="round" stroke-linejoin="round" stroke-miterlimit="10" x1="163" y1="426" x2="238" y2="408"/>
	
		<line fill="none" stroke="#F58220" stroke-width="11" stroke-linecap="round" stroke-linejoin="round" stroke-miterlimit="10" x1="163" y1="452" x2="238" y2="433"/>
	<path fill="none" stroke="#F58220" stroke-width="11" stroke-linecap="round" stroke-linejoin="round" stroke-miterlimit="10" d="
		M178,463c11,6,30,9,45-1"/>
	<path fill="none" stroke="#F58220" stroke-width="11" stroke-linecap="round" stroke-linejoin="round" stroke-miterlimit="10" d="
		M189,372c0-8-12-58-15-68c-3-8,20,11,26,13c4,1,29-23,26-13c-3,9-15,66-15,66"/>
	
		<line fill="none" stroke="#F58220" stroke-width="11" stroke-linecap="round" stroke-linejoin="round" stroke-miterlimit="10" x1="86" y1="262" x2="49" y2="262"/>
	
		<line fill="none" stroke="#F58220" stroke-width="11" stroke-linecap="round" stroke-linejoin="round" stroke-miterlimit="10" x1="99" y1="338" x2="72" y2="365"/>
	
		<line fill="none" stroke="#F58220" stroke-width="11" stroke-linecap="round" stroke-linejoin="round" stroke-miterlimit="10" x1="353" y1="262" x2="315" y2="262"/>
	
		<line fill="none" stroke="#F58220" stroke-width="11" stroke-linecap="round" stroke-linejoin="round" stroke-miterlimit="10" x1="327" y1="365" x2="300" y2="338"/>
	
		<line fill="none" stroke="#F58220" stroke-width="11" stroke-linecap="round" stroke-linejoin="round" stroke-miterlimit="10" x1="200" y1="165" x2="200" y2="127"/>
	
		<line fill="none" stroke="#F58220" stroke-width="11" stroke-linecap="round" stroke-linejoin="round" stroke-miterlimit="10" x1="291" y1="191" x2="318" y2="165"/>
	
		<line fill="none" stroke="#F58220" stroke-width="11" stroke-linecap="round" stroke-linejoin="round" stroke-miterlimit="10" x1="84" y1="165" x2="111" y2="191"/>
</g>
</svg>
