<?xml version="1.0" encoding="utf-8"?>
<!-- Generator: Adobe Illustrator 18.1.1, SVG Export Plug-In . SVG Version: 6.00 Build 0)  -->
<svg version="1.1" id="Layer_1" xmlns="http://www.w3.org/2000/svg" xmlns:xlink="http://www.w3.org/1999/xlink" x="0px" y="0px"
	 viewBox="0 0 40 41" enable-background="new 0 0 40 41" xml:space="preserve">
<circle fill="none" stroke="#F58220" stroke-width="1.5" stroke-miterlimit="10" cx="20.1" cy="20.6" r="16"/>
<path fill="none" stroke="#F58220" stroke-width="1.5" stroke-linecap="round" stroke-linejoin="round" stroke-miterlimit="10" d="M20,20.5"/>
<g>
	<path fill="none" stroke="#F58220" stroke-width="1.5" stroke-linecap="round" stroke-linejoin="round" stroke-miterlimit="10" d="M15.1,12.6h13
		c1.4,0,2.5,1.1,2.5,2.5v9.1c0,1.4-1.1,2.5-2.5,2.5h-8.7"/>
	<path fill="none" stroke="#F58220" stroke-width="1.5" stroke-linecap="round" stroke-linejoin="round" stroke-miterlimit="10" d="M15.4,26.6h-2.9
		c-1.4,0-2.5-1.1-2.5-2.5V15c0-1.4,1.1-2.5,2.5-2.5h2.7"/>
	
		<line fill="none" stroke="#F58220" stroke-width="1.5" stroke-linecap="round" stroke-linejoin="round" stroke-miterlimit="10" x1="27.5" y1="15.8" x2="12.9" y2="15.8"/>
	
		<line fill="none" stroke="#F58220" stroke-width="1.5" stroke-linecap="round" stroke-linejoin="round" stroke-miterlimit="10" x1="27.5" y1="19.4" x2="12.9" y2="19.4"/>
	
		<line fill="none" stroke="#F58220" stroke-width="1.5" stroke-linecap="round" stroke-linejoin="round" stroke-miterlimit="10" x1="27.5" y1="23.1" x2="12.9" y2="23.1"/>
	<path fill="none" stroke="#F58220" stroke-width="1.5" stroke-linecap="round" stroke-linejoin="round" stroke-miterlimit="10" d="M15.5,26.7
		c-0.1,1-0.8,3.1-1.9,4s3.7,0.1,5.7-3.9"/>
</g>
</svg>
