<?xml version="1.0" encoding="utf-8"?>
<!-- Generator: Adobe Illustrator 18.1.1, SVG Export Plug-In . SVG Version: 6.00 Build 0)  -->
<svg version="1.1" id="Layer_1" xmlns="http://www.w3.org/2000/svg" xmlns:xlink="http://www.w3.org/1999/xlink" x="0px" y="0px"
	 viewBox="0 0 40 41" enable-background="new 0 0 40 41" xml:space="preserve">
<path fill="none" stroke="#F58220" stroke-linecap="round" stroke-linejoin="round" stroke-miterlimit="10" d="M30.6,27v8.2
	c0,1.9-1.5,3.4-3.4,3.4H12.9c-1.9,0-3.4-1.5-3.4-3.4V5.9c0-1.9,1.5-3.4,3.4-3.4h14.3c1.9,0,3.4,1.5,3.4,3.4v21.4"/>
<rect x="12.8" y="7.7" fill="none" stroke="#F58220" stroke-linecap="round" stroke-linejoin="round" stroke-miterlimit="10" width="14.4" height="25.7"/>
<path fill="none" stroke="#F58220" stroke-linecap="round" stroke-linejoin="round" stroke-miterlimit="10" d="M20.5,35.8
	c0,0.5-0.3,0.7-0.7,0.7c-0.4,0-0.7-0.3-0.7-0.7c0-0.4,0.3-0.7,0.7-0.7C20.1,35.1,20.5,35.4,20.5,35.8"/>
</svg>
