<?xml version="1.0" encoding="utf-8"?>
<!-- Generator: Adobe Illustrator 18.1.1, SVG Export Plug-In . SVG Version: 6.00 Build 0)  -->
<svg version="1.1" id="Layer_1" xmlns="http://www.w3.org/2000/svg" xmlns:xlink="http://www.w3.org/1999/xlink" x="0px" y="0px"
	 viewBox="0 0 40 41" enable-background="new 0 0 40 41" xml:space="preserve">
<g>
	
		<line fill="none" stroke="#F58220" stroke-linecap="round" stroke-linejoin="round" stroke-miterlimit="10" x1="27.8" y1="15" x2="33" y2="10.5"/>
	
		<line fill="none" stroke="#F58220" stroke-linecap="round" stroke-linejoin="round" stroke-miterlimit="10" x1="29.8" y1="23" x2="36.2" y2="25.3"/>
	
		<line fill="none" stroke="#F58220" stroke-linecap="round" stroke-linejoin="round" stroke-miterlimit="10" x1="29" y1="18.8" x2="33.3" y2="18.8"/>
	<path fill="none" stroke="#F58220" stroke-linecap="round" stroke-linejoin="round" stroke-miterlimit="10" d="M8.6,25.9
		c3.7,0.5,11.6,1.6,16.1,1.6c2.7,0,2.5-5.5,1.7-8.6c-0.9-3.8-3.7-7.6-5.6-6.5c-4.5,2.7-14.1,9.7-15.1,9.7s-2.6-1.8-1.6,2.2
		s1.8,1.1,2.8,1.2C7.2,25.7,7.7,25.8,8.6,25.9"/>
	<path fill="none" stroke="#F58220" stroke-linecap="round" stroke-linejoin="round" stroke-miterlimit="10" d="M20.4,20.6
		c-0.7-3-0.3-5.7,0.7-5.9c1.1-0.2,2.5,2,3.1,5s0.3,5.7-0.7,5.9C22.5,25.9,21.1,23.5,20.4,20.6"/>
	<path fill="none" stroke="#F58220" stroke-linecap="round" stroke-linejoin="round" stroke-miterlimit="10" d="M10.4,27.9
		c0.1,1.1,1,2.4,3,2.6c2.3,0.2,2.8-0.6,3.4-1.8"/>
</g>
</svg>
