<?xml version="1.0" encoding="utf-8"?>
<!-- Generator: Adobe Illustrator 18.1.1, SVG Export Plug-In . SVG Version: 6.00 Build 0)  -->
<svg version="1.1" id="Layer_1" xmlns="http://www.w3.org/2000/svg" xmlns:xlink="http://www.w3.org/1999/xlink" x="0px" y="0px"
	 viewBox="0 0 40 41" enable-background="new 0 0 40 41" xml:space="preserve">
<path fill="none" stroke="#F58220" stroke-linecap="round" stroke-linejoin="round" stroke-miterlimit="10" d="M28.2,28.3
	c-2.3,2.2-4.2,4-5.7,5.4c-1.9,1.8,0.8,2.7-0.1,3.6s-10.4-4.4-8.8-11.9C11.9,24,4,12,6.6,6.1c1-0.8,8.7-0.6,18,9.5
	c8.9-0.1,11.6,9.8,10.9,10.5c-0.8,0.8-1.6-3.1-5.2,0.3C29.5,27.1,28.8,27.7,28.2,28.3"/>
<path fill="none" stroke="#F58220" stroke-linecap="round" stroke-linejoin="round" stroke-miterlimit="10" d="M22.2,33.9
	c-1-1.4-6.7-8.1-4.4-10.1s3.3-3,4.6-4.1c1.3-1.1,6.3,2.4,8.9,5.6"/>
<path fill="none" stroke="#F58220" stroke-linecap="round" stroke-linejoin="round" stroke-miterlimit="10" d="M6.4,10.7
	c1.4-0.4,4.1-2.7,5-4.3"/>
<g>
	<path fill="#F58220" d="M6.2,6.5l-2-2.7c-0.1-0.1-0.1-0.2,0-0.3c0.1-0.1,0.2-0.1,0.3,0L7,5.8C7.2,6,7.2,6.3,7,6.5
		C6.8,6.7,6.5,6.7,6.2,6.5C6.3,6.5,6.3,6.5,6.2,6.5z"/>
</g>
<path fill="none" stroke="#F58220" stroke-linecap="round" stroke-linejoin="round" stroke-miterlimit="10" d="M23.6,32.9
	c0.4,0.2,1.5,1.3,4.8-2s2.4-3.8,2.2-4.1"/>
<g>
	<path fill="#F58220" d="M28.6,30.9l1,1.4c0.1,0.1,0,0.2,0,0.3c-0.1,0-0.2,0-0.2,0l-1.4-1c-0.2-0.2-0.3-0.5-0.1-0.7
		c0.2-0.2,0.5-0.3,0.7-0.1C28.5,30.8,28.6,30.9,28.6,30.9z"/>
</g>
<path fill="none" stroke="#F58220" stroke-linecap="round" stroke-linejoin="round" stroke-miterlimit="10" d="M14.8,11.4
	c1.1,1.5,0.7,3-0.5,3.9c-1.2,0.9-2.9,0.7-3.8-0.5s-0.7-2.9,0.5-3.8S14,10.3,14.8,11.4"/>
<path fill="none" stroke="#F58220" stroke-linecap="round" stroke-linejoin="round" stroke-miterlimit="10" d="M18.6,17.1
	c0.9,1.2,0.5,2.3-0.4,3c-0.9,0.7-2.2,0.5-2.9-0.4c-0.7-0.9-0.5-2.2,0.4-2.9C16.7,16.1,18,16.3,18.6,17.1"/>
</svg>
