<?xml version="1.0" encoding="utf-8"?>
<!-- Generator: Adobe Illustrator 18.1.1, SVG Export Plug-In . SVG Version: 6.00 Build 0)  -->
<svg version="1.1" id="Layer_1" xmlns="http://www.w3.org/2000/svg" xmlns:xlink="http://www.w3.org/1999/xlink" x="0px" y="0px"
	 viewBox="25 123 352 359" enable-background="new 25 123 352 359" xml:space="preserve">
<path fill="#FFFFFF" d="M233.7,423.9c4.1,2.1,15.5,13.4,49.5-20.6s24.8-39.2,22.7-42.3"/>
<path fill="#FFFFFF" d="M282,378c-23,22-42,40-57,54c-19,18,8,27-1,36c-9,9-104-44-88-119c-17-14-96-134-70-193c10-8,87-6,180,95
	c89-1,116,98,109,105c-8,8-16-31-52,3C295,366,288,372,282,378"/>
<path fill="none" stroke="#F58220" stroke-width="8" stroke-linecap="round" stroke-linejoin="round" stroke-miterlimit="10" d="
	M282,378c-23,22-42,40-57,54c-19,18,8,27-1,36c-9,9-104-44-88-119c-17-14-96-134-70-193c10-8,87-6,180,95c89-1,116,98,109,105
	c-8,8-16-31-52,3C295,366,288,372,282,378"/>
<path fill="none" stroke="#F58220" stroke-width="8" stroke-linecap="round" stroke-linejoin="round" stroke-miterlimit="10" d="
	M222,434c-10-14-67-81-44-101s33-30,46-41c13-11,63,24,89,56"/>
<path fill="none" stroke="#F58220" stroke-width="8" stroke-linecap="round" stroke-linejoin="round" stroke-miterlimit="10" d="
	M64,202c14-4,41-27,50-43"/>
<g>
	<path fill="#F58220" d="M62,160l-20-27c-1-1-1-2,0-3c1-1,2-1,3,0l25,23c2,2,2,5,0,7S65,162,62,160C63,160,63,160,62,160z"/>
</g>
<path fill="none" stroke="#F58220" stroke-width="8" stroke-linecap="round" stroke-linejoin="round" stroke-miterlimit="10" d="
	M236,424c4,2,15,13,48-20s24-38,22-41"/>
<g>
	<path fill="#F58220" d="M286,404l10,14c1,1,0,2,0,3c-1,0-2,0-2,0l-14-10c-2-2-3-5-1-7c2-2,5-3,7-1C285,403,286,404,286,404z"/>
</g>
<path fill="none" stroke="#F58220" stroke-width="8" stroke-linecap="round" stroke-linejoin="round" stroke-miterlimit="10" d="
	M148,209c11,15,7,30-5,39s-29,7-38-5c-9-12-7-29,5-38C122,196,140,198,148,209"/>
<path fill="none" stroke="#F58220" stroke-width="8" stroke-linecap="round" stroke-linejoin="round" stroke-miterlimit="10" d="
	M186,266c9,12,5,23-4,30c-9,7-22,5-29-4c-7-9-5-22,4-29C167,256,180,258,186,266"/>
</svg>
