<?xml version="1.0" encoding="utf-8"?>
<!-- Generator: Adobe Illustrator 18.1.1, SVG Export Plug-In . SVG Version: 6.00 Build 0)  -->
<svg version="1.1" id="Layer_1" xmlns="http://www.w3.org/2000/svg" xmlns:xlink="http://www.w3.org/1999/xlink" x="0px" y="0px"
	 viewBox="0 0 40 41" enable-background="new 0 0 40 41" xml:space="preserve">
<path fill="none" stroke="#F58220" stroke-linecap="round" stroke-linejoin="round" stroke-miterlimit="10" d="M27.1,29.4
	c-7.5,7.2-19.8,5.7-24.3,1.9c0,0,6,0.7,10.3-2.9c0,0-5-0.1-6.5-4.8c0,0,2.5,0.2,2.9-0.3c0,0-5.4-1.3-5.5-7c0,0,1.6,0.8,3.1,0.9
	c0,0-5.2-3.8-2.1-9.4c0,0,5.3,7,14.4,7.5c0,0-1.2-4.1,2.6-7.3c3.8-3.2,8.5-0.5,9.4,0.7c0,0,2.7-0.4,4.5-1.7c0,0-0.6,2.4-2.9,3.9
	c0,0,2.6-0.4,3.9-1.1c0,0-1.3,2.1-3.5,3.6C33.7,13.5,34.1,22.4,27.1,29.4"/>
</svg>
